<?xml version="1.0" encoding="utf-8"?>
<!-- Generator: Adobe Illustrator 24.1.2, SVG Export Plug-In . SVG Version: 6.00 Build 0)  -->
<svg version="1.1" id="Layer_1" xmlns="http://www.w3.org/2000/svg" xmlns:xlink="http://www.w3.org/1999/xlink" x="0px" y="0px"
	 viewBox="0 0 1366 768" style="enable-background:new 0 0 1366 768;" xml:space="preserve">
<style type="text/css">
	.st0{fill-rule:evenodd;clip-rule:evenodd;}
</style>
<g>
	<polygon class="st0" points="642.69,373 638.93,373 606.25,404 608.35,406 641.04,437 643.14,439 675.83,470 677.93,472 
		710.58,503 743.26,472 745.37,470 778.05,439 780.16,437 812.84,406 814.95,404 782.27,373 778.05,373 780.16,371 747.48,340 
		743.42,340 745.53,338 712.89,307 708.33,307 710.43,305 677.79,274 673.39,274 675.52,271.94 708.49,240 710.58,237.94 
		712.71,240 745.68,271.94 747.8,274 780.77,305.94 813.74,274 815.87,271.94 782.9,240 778.52,240 780.63,238 747.95,207 
		743.26,207 745.37,205 712.72,174 708.51,174 675.83,205 677.9,207 673.25,207 640.57,238 642.67,240 638.4,240 605.52,271.19 
		607.64,273.2 640.52,304.39 642.64,306.4 675.52,337.59 677.64,339.6 710.48,370.79 712.64,372.8 745.49,403.99 747.61,406 
		744.25,406 710.62,437.94 712.79,440 708.44,440 710.62,437.94 676.94,406 673.27,406 675.37,404 	"/>
	<polygon class="st0" points="848.66,425 816.02,456 818.12,458 814.1,458 780.42,489.94 782.6,492 778.5,492 745.82,523 
		747.93,525 743.26,525 710.62,556 712.72,558 708.47,558 710.62,556 677.93,525 673.27,525 675.37,523 642.69,492 638.6,492 
		640.77,489.94 607.1,458 603.07,458 605.18,456 572.53,425 567.97,425 570.08,423 537.44,392 533.34,392 535.52,389.94 501.84,358 
		496.73,358 463.55,389.47 465.69,391.5 498.87,422.97 501.01,425 534.18,456.47 536.32,458.5 569.46,489.97 571.64,492 
		604.78,523.47 606.92,525.5 640.1,556.97 642.24,559 675.42,590.47 677.56,592.5 710.73,623.97 743.87,592.5 746.01,590.47 
		779.19,559 781.33,556.97 814.51,525.5 816.65,523.47 849.82,492 851.96,489.97 885.14,458.5 887.24,456.47 920.42,425 	"/>
</g>
</svg>
